# exported by bspx_to_obj.py
mtllib city_edit.mtl
v 94.320000 0.360000 94.320000
v -94.320000 0.360000 -94.320000
v -94.320000 0.360000 94.320000
v 94.320000 0.360000 -94.320000
v 94.320000 11.520000 94.320000
v 94.320000 11.520000 -94.320000
v -94.320000 11.520000 94.320000
v 39.060000 11.520000 94.320000
v 28.800000 11.520000 94.320000
v -94.320000 11.520000 -94.320000
v -53.820000 11.520000 -94.320000
v -29.700000 11.520000 -94.320000
v 43.020000 19.800000 63.450000
v 43.020000 0.360000 44.010000
v 43.020000 0.360000 63.450000
v 43.020000 19.800000 44.010000
v 76.860000 0.360000 63.450000
v 76.860000 19.800000 44.010000
v 76.860000 19.800000 63.450000
v 76.860000 0.360000 44.010000
v -72.900000 0.360000 35.010000
v -72.900000 11.520000 24.930000
v -72.900000 0.360000 24.930000
v -72.900000 11.520000 35.010000
v -62.100000 0.360000 24.930000
v -62.100000 11.520000 35.010000
v -62.100000 0.360000 35.010000
v -62.100000 11.520000 24.930000
v 7.740000 11.520000 -39.510000
v 7.740000 5.760000 -49.590000
v 7.740000 5.760000 -39.510000
v 7.740000 11.520000 -49.590000
v 18.540000 0.360000 -39.510000
v 18.540000 11.520000 -49.590000
v 18.540000 11.520000 -39.510000
v 18.540000 5.760000 -49.590000
v 18.540000 0.360000 -49.410000
v 8.100000 0.360000 -39.510000
v -63.360000 14.760000 -8.640000
v -63.360000 0.360000 -20.160000
v -63.360000 14.760000 -20.160000
v -63.360000 0.360000 -8.640000
v -94.320000 0.360000 -8.640000
v -94.320000 14.760000 -8.640000
v -94.320000 14.760000 -20.160000
v -94.320000 0.360000 -20.160000
v -71.910000 19.800000 -66.240000
v -71.910000 0.360000 -49.140000
v -71.910000 19.800000 -49.140000
v -71.910000 0.360000 -66.240000
v -11.520000 0.360000 -49.500000
v -11.520000 19.800000 -49.140000
v -11.520000 0.360000 -49.140000
v -11.520000 0.360000 -66.240000
v -11.520000 19.800000 -49.500000
v -11.520000 19.800000 -66.240000
v -35.190000 0.360000 -49.140000
v -35.190000 19.800000 -49.140000
v -35.190000 19.800000 -9.270000
v -35.190000 0.360000 -9.270000
v -11.520000 19.800000 -9.270000
v -11.520000 0.360000 -9.270000
v 5.130000 19.800000 94.320000
v 5.130000 0.360000 55.080000
v 5.130000 0.360000 94.320000
v 5.130000 19.800000 55.080000
v 28.800000 19.800000 55.080000
v 28.800000 0.360000 54.450000
v 28.800000 19.800000 54.450000
v 28.800000 19.800000 94.320000
v 28.800000 0.360000 55.080000
v 28.800000 0.360000 75.330000
v -31.590000 19.800000 55.080000
v -31.590000 0.360000 37.980000
v -31.590000 0.360000 55.080000
v -31.590000 19.800000 37.980000
v 28.800000 0.360000 37.980000
v 28.800000 19.800000 37.980000
v 20.790000 19.800000 22.230000
v 20.790000 0.360000 -26.010000
v 20.790000 0.360000 22.230000
v 20.790000 19.800000 -26.010000
v 44.190000 0.360000 22.230000
v 44.190000 19.800000 -26.010000
v 44.190000 19.800000 22.230000
v 44.190000 0.360000 -26.010000
v 43.110000 19.800000 -35.100000
v 43.110000 0.360000 -50.400000
v 43.110000 0.360000 -35.100000
v 43.110000 19.800000 -50.400000
v 94.320000 19.800000 -35.100000
v 94.320000 0.360000 -35.100000
v 94.320000 0.360000 -50.400000
v 94.320000 19.800000 -50.400000
v 58.320000 0.360000 22.680000
v 58.320000 5.760000 22.410000
v 58.320000 0.360000 22.410000
v 58.320000 5.760000 22.680000
v 94.320000 5.760000 22.680000
v 94.320000 0.360000 22.680000
v 94.320000 0.360000 22.410000
v 94.320000 5.760000 22.410000
v 43.110000 0.360000 -49.410000
v 18.540000 5.760000 -49.410000
v 43.110000 5.760000 -49.410000
v 8.100000 0.360000 -49.860000
v 43.110000 5.760000 -49.860000
v 43.110000 0.360000 -49.860000
v 8.100000 5.760000 -49.860000
v 7.470000 5.760000 -49.860000
v 7.470000 5.760000 -49.410000
v 20.790000 0.360000 12.240000
v -13.500000 5.760000 12.240000
v -13.500000 0.360000 12.240000
v 20.790000 5.760000 12.240000
v -13.500000 5.760000 11.970000
v 20.790000 0.360000 11.970000
v -13.500000 0.360000 11.970000
v 20.790000 5.760000 11.970000
v -58.770000 5.760000 66.240000
v -58.770000 0.360000 65.610000
v -58.770000 5.760000 65.610000
v -58.770000 0.360000 66.240000
v -94.320000 0.360000 66.240000
v -94.320000 5.760000 66.240000
v -94.320000 5.760000 65.610000
v -94.320000 0.360000 65.610000
v -66.420000 5.760000 65.610000
v -66.780000 5.760000 65.610000
v -80.460000 5.760000 65.610000
v -67.140000 5.760000 50.130000
v -67.140000 0.360000 35.010000
v -67.140000 0.360000 50.130000
v -67.140000 5.760000 35.010000
v -66.420000 0.360000 65.610000
v -66.420000 5.760000 35.010000
v -66.420000 0.360000 35.010000
v 57.420000 5.760000 -63.630000
v 57.420000 0.360000 -94.320000
v 57.420000 0.360000 -63.630000
v 57.420000 5.760000 -94.320000
v 58.140000 0.360000 -63.630000
v 58.140000 5.760000 -94.320000
v 58.140000 5.760000 -63.630000
v 58.140000 0.360000 -94.320000
v 65.340000 5.760000 94.320000
v 65.340000 0.360000 63.450000
v 65.340000 0.360000 94.320000
v 65.340000 5.760000 63.450000
v 66.060000 0.360000 63.450000
v 66.060000 5.760000 94.320000
v 66.060000 0.360000 94.320000
v 66.060000 5.760000 63.450000
v 7.380000 5.760000 -18.630000
v 7.380000 0.360000 -49.950000
v 7.380000 0.360000 -18.630000
v 7.380000 5.760000 -49.950000
v 8.100000 0.360000 -18.630000
v 8.100000 5.760000 -49.950000
v 8.100000 5.760000 -18.630000
v 8.100000 0.360000 -49.950000
v -48.780000 19.800000 94.320000
v -48.780000 0.360000 74.970000
v -48.780000 0.360000 94.320000
v -48.780000 19.800000 74.970000
v -14.940000 0.360000 74.970000
v -14.940000 19.800000 94.320000
v -14.940000 0.360000 94.320000
v -14.940000 19.800000 74.970000
v -71.100000 11.520000 -39.510000
v -71.100000 0.360000 -49.140000
v -71.100000 0.360000 -39.510000
v -71.100000 11.520000 -49.140000
v -60.300000 0.360000 -39.510000
v -60.300000 11.520000 -49.140000
v -60.300000 11.520000 -39.510000
v -60.300000 0.360000 -49.140000
v -47.340000 19.800000 22.050000
v -47.340000 0.360000 2.610000
v -47.340000 0.360000 22.050000
v -47.340000 19.800000 2.610000
v -13.500000 0.360000 2.610000
v -13.500000 19.800000 22.050000
v -13.500000 0.360000 22.050000
v -13.500000 19.800000 2.610000
v -41.580000 11.520000 52.650000
v -41.580000 0.360000 42.570000
v -41.580000 0.360000 52.650000
v -41.580000 11.520000 42.570000
v -31.590000 0.360000 52.650000
v -31.590000 11.520000 52.650000
v -31.590000 0.360000 42.570000
v -31.590000 11.520000 42.570000
v -53.820000 11.520000 -79.110000
v -53.820000 0.360000 -94.320000
v -53.820000 0.360000 -79.110000
v -29.700000 0.360000 -79.110000
v -29.700000 11.520000 -79.110000
v -29.700000 0.360000 -94.320000
v 23.940000 0.360000 -66.150000
v 23.940000 19.800000 -85.590000
v 23.940000 0.360000 -85.590000
v 23.940000 19.800000 -66.150000
v 57.780000 5.760000 -85.590000
v 57.780000 19.800000 -66.150000
v 57.780000 5.760000 -66.150000
v 57.780000 19.800000 -85.590000
v 57.420000 0.360000 -66.150000
v 57.420000 0.360000 -85.590000
v -80.460000 0.360000 65.610000
v -80.460000 11.520000 50.130000
v -80.460000 0.360000 50.130000
v -80.460000 11.520000 65.610000
v -66.780000 5.760000 50.130000
v -66.780000 11.520000 65.610000
v -66.780000 11.520000 50.130000
v 39.060000 0.360000 75.330000
v 39.060000 0.360000 94.320000
v 39.060000 11.520000 75.330000
v 28.800000 11.520000 75.330000
v 68.220000 0.360000 0.810000
v 68.220000 19.800000 -18.630000
v 68.220000 19.800000 0.810000
v 68.220000 0.360000 -18.630000
v 44.190000 0.360000 0.810000
v 44.190000 19.800000 0.810000
v 44.190000 19.800000 -18.630000
v 44.190000 0.360000 -18.630000
vt 17.187500 18.187500
vt 0.812500 1.812500
vt 0.812500 18.187500
vt 0.812500 1.812500
vt 17.187500 18.187500
vt 17.187500 1.812500
vt 0.625000 1.000000
vt 33.375000 2.937500
vt 0.625000 2.937500
vt 33.375000 2.937500
vt 0.625000 1.000000
vt 33.375000 1.000000
vt 0.625000 1.000000
vt 33.375000 2.937500
vt 0.625000 2.937500
vt 33.375000 2.937500
vt 23.781250 1.000000
vt 33.375000 1.000000
vt 33.375000 2.937500
vt 22.000000 1.000000
vt 23.781250 1.000000
vt 33.375000 2.937500
vt 0.625000 1.000000
vt 22.000000 1.000000
vt 33.375000 2.937500
vt 0.625000 1.000000
vt 0.625000 2.937500
vt 0.625000 1.000000
vt 33.375000 2.937500
vt 33.375000 1.000000
vt 33.375000 2.937500
vt 0.625000 1.000000
vt 0.625000 2.937500
vt 33.375000 2.937500
vt 7.656250 1.000000
vt 0.625000 1.000000
vt 33.375000 2.937500
vt 11.843750 1.000000
vt 7.656250 1.000000
vt 11.843750 1.000000
vt 33.375000 2.937500
vt 33.375000 1.000000
vt 0.046875 1.562500
vt 3.421875 4.937500
vt 0.046875 4.937500
vt 3.421875 4.937500
vt 0.046875 1.562500
vt 3.421875 1.562500
vt 0.046875 4.937500
vt 3.421875 1.562500
vt 0.046875 1.562500
vt 3.421875 1.562500
vt 0.046875 4.937500
vt 3.421875 4.937500
vt 0.468750 4.937500
vt 6.343750 1.562500
vt 0.468750 1.562500
vt 6.343750 1.562500
vt 0.468750 4.937500
vt 6.343750 4.937500
vt 0.468750 1.562500
vt 6.343750 4.937500
vt 0.468750 4.937500
vt 6.343750 4.937500
vt 0.468750 1.562500
vt 6.343750 1.562500
vt 0.921875 2.937500
vt 2.671875 1.000000
vt 2.671875 2.937500
vt 2.671875 1.000000
vt 0.921875 2.937500
vt 0.921875 1.000000
vt 2.671875 2.937500
vt 0.921875 1.000000
vt 0.921875 2.937500
vt 0.921875 1.000000
vt 2.671875 2.937500
vt 2.671875 1.000000
vt 2.218750 2.937500
vt 0.343750 1.000000
vt 0.343750 2.937500
vt 0.343750 1.000000
vt 2.218750 2.937500
vt 2.218750 1.000000
vt 0.343750 2.937500
vt 2.218750 1.000000
vt 2.218750 2.937500
vt 2.218750 1.000000
vt 0.343750 2.937500
vt 0.343750 1.000000
vt 2.218750 1.328125
vt 0.343750 3.078125
vt 2.218750 3.078125
vt 0.343750 3.078125
vt 2.218750 1.328125
vt 0.343750 1.328125
vt 0.734375 1.000000
vt 2.484375 2.000000
vt 0.734375 2.000000
vt 2.484375 2.000000
vt 0.734375 1.000000
vt 2.484375 1.000000
vt 0.734375 2.937500
vt 2.484375 1.000000
vt 0.734375 1.000000
vt 0.734375 2.937500
vt 2.484375 2.000000
vt 2.484375 1.000000
vt 2.484375 2.000000
vt 0.734375 2.937500
vt 2.453125 2.937500
vt 2.281250 2.937500
vt 0.406250 2.000000
vt 0.468750 2.937500
vt 2.281250 2.937500
vt 0.406250 1.000000
vt 0.406250 2.000000
vt 0.406250 1.000000
vt 2.281250 2.937500
vt 2.281250 1.000000
vt 0.406250 2.000000
vt 2.281250 1.000000
vt 2.281250 2.000000
vt 2.281250 1.000000
vt 0.406250 2.000000
vt 0.406250 1.000000
vt 2.281250 3.265625
vt 0.406250 1.515625
vt 0.406250 3.265625
vt 0.406250 1.515625
vt 2.281250 3.265625
vt 2.281250 1.515625
vt 0.500000 1.437500
vt 2.500000 3.937500
vt 2.500000 1.437500
vt 2.500000 3.937500
vt 0.500000 1.437500
vt 0.500000 3.937500
vt 0.625000 3.937500
vt 6.000000 1.437500
vt 0.625000 1.437500
vt 6.000000 1.437500
vt 0.625000 3.937500
vt 6.000000 3.937500
vt 0.625000 1.437500
vt 6.000000 3.937500
vt 0.625000 3.937500
vt 6.000000 3.937500
vt 0.625000 1.437500
vt 6.000000 1.437500
vt 0.625000 3.500000
vt 6.000000 1.500000
vt 0.625000 1.500000
vt 6.000000 1.500000
vt 0.625000 3.500000
vt 6.000000 3.500000
vt 3.500000 1.281250
vt 0.531250 2.968750
vt 0.531250 1.281250
vt 0.531250 2.968750
vt 3.500000 1.281250
vt 3.500000 2.968750
vt 0.593750 2.968750
vt 0.531250 1.281250
vt 0.531250 2.968750
vt 3.500000 2.968750
vt 0.531250 1.281250
vt 0.593750 2.968750
vt 3.500000 2.968750
vt 0.593750 1.281250
vt 0.531250 1.281250
vt 0.593750 1.281250
vt 3.500000 2.968750
vt 3.500000 1.281250
vt 6.890625 2.968750
vt 0.515625 1.281250
vt 0.515625 2.968750
vt 0.515625 1.281250
vt 6.890625 2.968750
vt 6.890625 1.281250
vt 0.515625 1.281250
vt 11.000000 2.968750
vt 0.515625 2.968750
vt 11.000000 2.968750
vt 0.515625 1.281250
vt 11.000000 1.281250
vt 0.515625 1.281250
vt 7.437500 2.968750
vt 0.515625 2.968750
vt 7.437500 2.968750
vt 0.515625 1.281250
vt 7.437500 1.281250
vt 7.437500 1.281250
vt 7.500000 2.968750
vt 7.500000 1.281250
vt 0.515625 1.281250
vt 7.500000 2.968750
vt 7.437500 1.281250
vt 0.515625 1.281250
vt 7.437500 2.968750
vt 7.500000 2.968750
vt 7.437500 2.968750
vt 0.515625 1.281250
vt 0.515625 2.968750
vt 0.890625 1.281250
vt 5.000000 2.968750
vt 5.000000 1.281250
vt 5.000000 2.968750
vt 0.890625 1.281250
vt 0.890625 2.968750
vt 0.531250 1.281250
vt 7.343750 2.968750
vt 0.531250 2.968750
vt 7.343750 2.968750
vt 0.531250 1.281250
vt 7.343750 1.281250
vt 7.343750 1.281250
vt 7.453125 2.968750
vt 7.453125 1.281250
vt 0.531250 1.281250
vt 7.453125 2.968750
vt 7.343750 1.281250
vt 0.531250 1.281250
vt 7.343750 2.968750
vt 7.453125 2.968750
vt 0.531250 1.281250
vt 3.828125 2.968750
vt 7.343750 2.968750
vt 3.828125 2.968750
vt 0.531250 1.281250
vt 0.531250 2.000000
vt 0.531250 1.281250
vt 3.500000 2.968750
vt 0.531250 2.968750
vt 3.500000 2.968750
vt 0.531250 1.281250
vt 3.500000 1.281250
vt 0.640625 1.281250
vt 3.500000 2.968750
vt 3.500000 1.281250
vt 0.531250 1.281250
vt 3.500000 2.968750
vt 0.640625 1.281250
vt 0.531250 1.281250
vt 0.640625 2.968750
vt 3.500000 2.968750
vt 0.640625 2.968750
vt 0.531250 1.281250
vt 0.531250 2.968750
vt 0.515625 2.968750
vt 6.890625 1.281250
vt 0.515625 1.281250
vt 6.890625 1.281250
vt 0.515625 2.968750
vt 6.890625 2.968750
vt 0.515625 1.281250
vt 11.000000 2.968750
vt 0.515625 2.968750
vt 11.000000 2.968750
vt 0.515625 1.281250
vt 11.000000 1.281250
vt 0.984375 1.625000
vt 9.359375 5.000000
vt 0.984375 5.000000
vt 9.359375 5.000000
vt 0.984375 1.625000
vt 9.359375 1.625000
vt 0.984375 5.000000
vt 9.359375 1.625000
vt 0.984375 1.625000
vt 9.359375 1.625000
vt 0.984375 5.000000
vt 9.359375 5.000000
vt 0.609375 5.000000
vt 4.671875 1.625000
vt 0.609375 1.625000
vt 4.671875 1.625000
vt 0.609375 5.000000
vt 4.671875 5.000000
vt 0.609375 1.625000
vt 4.671875 5.000000
vt 0.609375 5.000000
vt 4.671875 5.000000
vt 0.609375 1.625000
vt 4.671875 1.625000
vt 0.375000 1.562500
vt 3.031250 4.937500
vt 0.375000 4.937500
vt 3.031250 4.937500
vt 0.375000 1.562500
vt 3.031250 1.562500
vt 0.484375 4.937500
vt 9.375000 1.562500
vt 0.484375 1.562500
vt 9.375000 1.562500
vt 0.484375 4.937500
vt 9.375000 4.937500
vt 0.484375 1.562500
vt 9.375000 4.937500
vt 0.484375 4.937500
vt 9.375000 4.937500
vt 0.484375 1.562500
vt 9.375000 1.562500
vt 0.062500 1.937500
vt 0.109375 1.000000
vt 0.109375 1.937500
vt 0.109375 1.000000
vt 0.062500 1.937500
vt 0.062500 1.000000
vt 0.062500 1.937500
vt 6.312500 1.000000
vt 0.062500 1.000000
vt 6.312500 1.000000
vt 0.062500 1.937500
vt 6.312500 1.937500
vt 0.062500 1.000000
vt 6.312500 1.937500
vt 0.062500 1.937500
vt 6.312500 1.937500
vt 0.062500 1.000000
vt 6.312500 1.000000
vt 0.062500 1.937500
vt 6.312500 1.890625
vt 0.062500 1.890625
vt 6.312500 1.890625
vt 0.062500 1.937500
vt 6.312500 1.937500
vt 5.250000 1.937500
vt 0.984375 1.000000
vt 0.984375 1.937500
vt 0.984375 1.000000
vt 5.250000 1.937500
vt 5.250000 1.000000
vt 0.171875 1.937500
vt 6.250000 1.000000
vt 6.250000 1.937500
vt 6.250000 1.000000
vt 0.171875 1.937500
vt 0.171875 1.000000
vt 0.171875 1.859375
vt 6.250000 1.937500
vt 6.250000 1.859375
vt 0.062500 1.859375
vt 6.250000 1.937500
vt 0.171875 1.859375
vt 0.062500 1.859375
vt 1.984375 1.937500
vt 6.250000 1.937500
vt 1.984375 1.937500
vt 0.062500 1.859375
vt 0.062500 1.937500
vt 6.046875 1.937500
vt 0.093750 1.000000
vt 0.093750 1.937500
vt 0.093750 1.000000
vt 6.046875 1.937500
vt 6.046875 1.000000
vt 0.093750 1.000000
vt 6.046875 1.937500
vt 0.093750 1.937500
vt 6.046875 1.937500
vt 0.093750 1.000000
vt 6.046875 1.000000
vt 0.093750 1.937500
vt 6.046875 1.890625
vt 0.093750 1.890625
vt 6.046875 1.890625
vt 0.093750 1.937500
vt 6.046875 1.937500
vt 0.000000 1.000000
vt 0.109375 1.937500
vt 0.109375 1.000000
vt 0.109375 1.937500
vt 0.000000 1.000000
vt 0.000000 1.937500
vt 0.187500 1.937500
vt 6.359375 1.000000
vt 0.187500 1.000000
vt 6.359375 1.000000
vt 0.187500 1.937500
vt 6.359375 1.937500
vt 0.187500 1.000000
vt 6.359375 1.937500
vt 0.187500 1.937500
vt 6.359375 1.937500
vt 5.031250 1.000000
vt 6.359375 1.000000
vt 6.359375 1.937500
vt 4.968750 1.000000
vt 5.031250 1.000000
vt 6.359375 1.937500
vt 2.593750 1.000000
vt 4.968750 1.000000
vt 6.359375 1.937500
vt 0.187500 1.000000
vt 2.593750 1.000000
vt 6.359375 2.000000
vt 0.187500 1.890625
vt 0.187500 2.000000
vt 6.359375 2.000000
vt 2.593750 1.890625
vt 0.187500 1.890625
vt 6.359375 2.000000
vt 4.968750 1.890625
vt 2.593750 1.890625
vt 6.359375 2.000000
vt 5.031250 1.890625
vt 4.968750 1.890625
vt 5.031250 1.890625
vt 6.359375 2.000000
vt 6.359375 1.890625
vt 0.296875 1.000000
vt 2.921875 1.937500
vt 0.296875 1.937500
vt 2.921875 1.937500
vt 0.296875 1.000000
vt 2.921875 1.000000
vt 0.609375 1.937500
vt 5.921875 1.000000
vt 0.609375 1.000000
vt 5.921875 1.000000
vt 0.609375 1.937500
vt 5.921875 1.937500
vt 0.468750 6.390625
vt 0.343750 3.703125
vt 0.406250 6.390625
vt 0.468750 6.390625
vt 0.343750 1.078125
vt 0.343750 3.703125
vt 0.343750 1.078125
vt 0.468750 6.390625
vt 0.468750 1.078125
vt 0.609375 1.000000
vt 5.937500 1.937500
vt 0.609375 1.937500
vt 5.937500 1.937500
vt 0.609375 1.000000
vt 5.937500 1.000000
vt 0.609375 1.937500
vt 5.937500 1.000000
vt 0.609375 1.000000
vt 5.937500 1.000000
vt 0.609375 1.937500
vt 5.937500 1.937500
vt 0.468750 1.937500
vt 0.343750 1.000000
vt 0.343750 1.937500
vt 0.343750 1.000000
vt 0.468750 1.937500
vt 0.468750 1.000000
vt 0.468750 6.390625
vt 0.343750 1.062500
vt 0.343750 6.390625
vt 0.343750 1.062500
vt 0.468750 6.390625
vt 0.468750 1.062500
vt 0.625000 1.000000
vt 5.984375 1.937500
vt 0.625000 1.937500
vt 5.984375 1.937500
vt 0.625000 1.000000
vt 5.984375 1.000000
vt 5.984375 1.937500
vt 0.625000 1.000000
vt 0.625000 1.937500
vt 0.625000 1.000000
vt 5.984375 1.937500
vt 5.984375 1.000000
vt 0.468750 1.015625
vt 0.343750 6.375000
vt 0.468750 6.375000
vt 0.343750 6.375000
vt 0.468750 1.015625
vt 0.343750 1.015625
vt 0.609375 1.000000
vt 6.046875 1.937500
vt 0.609375 1.937500
vt 6.046875 1.937500
vt 0.609375 1.000000
vt 6.046875 1.000000
vt 0.609375 1.937500
vt 6.046875 1.000000
vt 0.609375 1.000000
vt 6.046875 1.000000
vt 0.609375 1.937500
vt 6.046875 1.937500
vt 0.468750 1.937500
vt 0.343750 1.000000
vt 0.343750 1.937500
vt 0.343750 1.000000
vt 0.468750 1.937500
vt 0.468750 1.000000
vt 0.343750 1.937500
vt 0.468750 1.000000
vt 0.468750 1.937500
vt 0.468750 1.000000
vt 0.343750 1.937500
vt 0.343750 1.000000
vt 0.468750 7.390625
vt 0.343750 1.953125
vt 0.343750 7.390625
vt 0.343750 1.953125
vt 0.468750 7.390625
vt 0.468750 1.953125
vt 0.625000 1.562500
vt 3.984375 4.937500
vt 0.625000 4.937500
vt 3.984375 4.937500
vt 0.625000 1.562500
vt 3.984375 1.562500
vt 3.984375 4.937500
vt 0.625000 1.562500
vt 0.625000 4.937500
vt 0.625000 1.562500
vt 3.984375 4.937500
vt 3.984375 1.562500
vt 0.531250 1.562500
vt 6.406250 4.937500
vt 0.531250 4.937500
vt 6.406250 4.937500
vt 0.531250 1.562500
vt 6.406250 1.562500
vt 0.859375 1.000000
vt 2.531250 2.937500
vt 0.859375 2.937500
vt 2.531250 2.937500
vt 0.859375 1.000000
vt 2.531250 1.000000
vt 0.859375 2.937500
vt 2.531250 1.000000
vt 0.859375 1.000000
vt 2.531250 1.000000
vt 0.859375 2.937500
vt 2.531250 2.937500
vt 0.656250 2.937500
vt 2.531250 1.000000
vt 0.656250 1.000000
vt 2.531250 1.000000
vt 0.656250 2.937500
vt 2.531250 2.937500
vt 2.531250 3.140625
vt 0.656250 1.468750
vt 0.656250 3.140625
vt 0.656250 1.468750
vt 2.531250 3.140625
vt 2.531250 1.468750
vt 0.171875 1.562500
vt 3.546875 4.937500
vt 0.171875 4.937500
vt 3.546875 4.937500
vt 0.171875 1.562500
vt 3.546875 1.562500
vt 3.546875 4.937500
vt 0.171875 1.562500
vt 0.171875 4.937500
vt 0.171875 1.562500
vt 3.546875 4.937500
vt 3.546875 1.562500
vt 0.843750 4.937500
vt 6.718750 1.562500
vt 0.843750 1.562500
vt 6.718750 1.562500
vt 0.843750 4.937500
vt 6.718750 4.937500
vt 0.843750 1.562500
vt 6.718750 4.937500
vt 0.843750 4.937500
vt 6.718750 4.937500
vt 0.843750 1.562500
vt 6.718750 1.562500
vt 0.859375 1.000000
vt 2.609375 2.937500
vt 0.859375 2.937500
vt 2.609375 2.937500
vt 0.859375 1.000000
vt 2.609375 1.000000
vt 2.515625 2.937500
vt 0.781250 1.000000
vt 0.781250 2.937500
vt 0.781250 1.000000
vt 2.515625 2.937500
vt 2.515625 1.000000
vt 2.515625 2.937500
vt 0.781250 1.000000
vt 2.515625 1.000000
vt 0.781250 1.000000
vt 2.515625 2.937500
vt 0.781250 2.937500
vt 2.515625 3.140625
vt 0.781250 1.390625
vt 0.781250 3.140625
vt 0.781250 1.390625
vt 2.515625 3.140625
vt 2.515625 1.390625
vt 0.734375 1.000000
vt 3.375000 2.937500
vt 0.734375 2.937500
vt 3.375000 2.937500
vt 0.734375 1.000000
vt 3.375000 1.000000
vt 0.734375 2.937500
vt 3.375000 1.000000
vt 0.734375 1.000000
vt 3.375000 1.000000
vt 0.734375 2.937500
vt 3.375000 2.937500
vt 0.656250 2.937500
vt 4.843750 1.000000
vt 0.656250 1.000000
vt 4.843750 1.000000
vt 0.656250 2.937500
vt 4.843750 2.937500
vt 4.843750 4.265625
vt 0.656250 1.625000
vt 0.656250 4.265625
vt 0.656250 1.625000
vt 4.843750 4.265625
vt 4.843750 1.625000
vt 0.484375 4.937500
vt 3.859375 1.562500
vt 3.859375 4.937500
vt 3.859375 1.562500
vt 0.484375 4.937500
vt 0.484375 1.562500
vt 3.859375 4.000000
vt 0.484375 1.562500
vt 0.484375 4.000000
vt 0.484375 1.562500
vt 3.859375 4.000000
vt 3.859375 1.562500
vt 0.031250 4.937500
vt 5.906250 1.562500
vt 0.031250 1.562500
vt 0.031250 4.937500
vt 5.906250 4.000000
vt 5.906250 1.562500
vt 5.906250 4.000000
vt 0.031250 4.937500
vt 5.843750 4.937500
vt 0.031250 1.562500
vt 5.843750 4.937500
vt 0.031250 4.937500
vt 0.031250 1.562500
vt 5.906250 4.000000
vt 5.843750 4.937500
vt 5.906250 4.000000
vt 0.031250 1.562500
vt 5.906250 1.562500
vt 0.734375 2.937500
vt 3.421875 1.000000
vt 3.421875 2.937500
vt 3.421875 1.000000
vt 0.734375 2.000000
vt 0.734375 1.000000
vt 3.421875 1.000000
vt 0.734375 2.937500
vt 0.734375 2.000000
vt 3.421875 2.000000
vt 0.734375 1.000000
vt 0.734375 2.000000
vt 0.734375 1.000000
vt 3.421875 2.000000
vt 3.421875 1.000000
vt 3.343750 2.000000
vt 0.968750 1.000000
vt 0.968750 2.000000
vt 0.968750 1.000000
vt 3.343750 2.000000
vt 3.343750 1.000000
vt 0.968750 1.000000
vt 3.281250 2.937500
vt 0.968750 2.937500
vt 0.968750 1.000000
vt 3.343750 2.000000
vt 3.281250 2.937500
vt 3.343750 2.000000
vt 0.968750 1.000000
vt 3.343750 1.000000
vt 3.343750 1.578125
vt 0.968750 4.265625
vt 3.343750 4.265625
vt 0.968750 4.265625
vt 3.343750 1.578125
vt 0.968750 1.578125
vt 4.046875 2.937500
vt 0.750000 1.000000
vt 0.750000 2.937500
vt 0.750000 1.000000
vt 4.046875 2.937500
vt 4.046875 1.000000
vt 0.000000 2.937500
vt 1.781250 1.000000
vt 1.781250 2.937500
vt 1.781250 1.000000
vt 0.000000 2.937500
vt 0.000000 1.000000
vt 1.781250 5.250000
vt 0.000000 1.953125
vt 0.000000 5.250000
vt 0.000000 1.953125
vt 1.781250 5.250000
vt 1.781250 1.953125
vt 0.859375 4.937500
vt 4.234375 1.562500
vt 0.859375 1.562500
vt 4.234375 1.562500
vt 0.859375 4.937500
vt 4.234375 4.937500
vt 0.671875 4.937500
vt 4.843750 1.562500
vt 0.671875 1.562500
vt 4.843750 1.562500
vt 0.671875 4.937500
vt 4.843750 4.937500
vt 0.671875 1.562500
vt 4.843750 4.937500
vt 0.671875 4.937500
vt 4.843750 4.937500
vt 0.671875 1.562500
vt 4.843750 1.562500
vn 0.000000 1.000000 0.000000
vn 0.000000 1.000000 0.000000
vn -1.000000 -0.000000 0.000000
vn -1.000000 0.000000 0.000000
vn 0.000000 0.000000 -1.000000
vn 0.000000 0.000000 -1.000000
vn 0.000000 0.000000 -1.000000
vn 0.000000 0.000000 -1.000000
vn 1.000000 0.000000 0.000000
vn 1.000000 0.000000 0.000000
vn 0.000000 0.000000 1.000000
vn 0.000000 0.000000 1.000000
vn 0.000000 0.000000 1.000000
vn -0.000000 0.000000 1.000000
vn -1.000000 -0.000000 0.000000
vn -1.000000 0.000000 0.000000
vn 1.000000 -0.000000 0.000000
vn 1.000000 0.000000 0.000000
vn 0.000000 0.000000 1.000000
vn 0.000000 0.000000 1.000000
vn 0.000000 0.000000 -1.000000
vn 0.000000 0.000000 -1.000000
vn -1.000000 0.000000 0.000000
vn -1.000000 0.000000 0.000000
vn 1.000000 0.000000 0.000000
vn 1.000000 0.000000 0.000000
vn 0.000000 0.000000 1.000000
vn -0.000000 0.000000 1.000000
vn 0.000000 0.000000 -1.000000
vn -0.000000 0.000000 -1.000000
vn 0.000000 1.000000 -0.000000
vn 0.000000 1.000000 0.000000
vn -1.000000 -0.000000 0.000000
vn -1.000000 0.000000 0.000000
vn 1.000000 -0.000000 0.000000
vn 1.000000 0.000000 0.000000
vn 1.000000 0.000000 0.000000
vn 0.000000 0.000000 1.000000
vn 0.000000 0.000000 1.000000
vn -0.000000 0.000000 1.000000
vn 0.000000 0.000000 -1.000000
vn -0.000000 0.000000 -1.000000
vn 0.000000 1.000000 0.000000
vn 0.000000 1.000000 0.000000
vn 1.000000 0.000000 0.000000
vn 1.000000 0.000000 0.000000
vn 0.000000 0.000000 1.000000
vn 0.000000 0.000000 1.000000
vn 0.000000 0.000000 -1.000000
vn 0.000000 0.000000 -1.000000
vn 0.000000 1.000000 0.000000
vn 0.000000 1.000000 -0.000000
vn -1.000000 0.000000 0.000000
vn -1.000000 0.000000 0.000000
vn 1.000000 0.000000 0.000000
vn 1.000000 0.000000 0.000000
vn 1.000000 0.000000 0.000000
vn 1.000000 0.000000 0.000000
vn 0.000000 0.000000 1.000000
vn -0.000000 0.000000 1.000000
vn 0.000000 0.000000 -1.000000
vn 0.000000 0.000000 -1.000000
vn -1.000000 -0.000000 0.000000
vn -1.000000 0.000000 0.000000
vn 1.000000 0.000000 0.000000
vn 1.000000 0.000000 0.000000
vn 1.000000 0.000000 0.000000
vn 1.000000 0.000000 0.000000
vn -0.000000 0.000000 1.000000
vn 0.000000 0.000000 1.000000
vn -1.000000 -0.000000 0.000000
vn -1.000000 0.000000 0.000000
vn 1.000000 0.000000 0.000000
vn 1.000000 0.000000 0.000000
vn 1.000000 0.000000 0.000000
vn 1.000000 0.000000 0.000000
vn 1.000000 0.000000 0.000000
vn -1.000000 -0.000000 0.000000
vn -1.000000 0.000000 0.000000
vn 1.000000 0.000000 0.000000
vn 1.000000 0.000000 0.000000
vn 1.000000 0.000000 0.000000
vn 1.000000 0.000000 0.000000
vn 0.000000 0.000000 1.000000
vn 0.000000 0.000000 1.000000
vn 0.000000 0.000000 -1.000000
vn 0.000000 0.000000 -1.000000
vn -1.000000 -0.000000 0.000000
vn -1.000000 0.000000 0.000000
vn 1.000000 -0.000000 0.000000
vn 1.000000 0.000000 0.000000
vn 0.000000 0.000000 1.000000
vn 0.000000 0.000000 1.000000
vn 0.000000 0.000000 -1.000000
vn 0.000000 0.000000 -1.000000
vn -1.000000 -0.000000 0.000000
vn -1.000000 0.000000 0.000000
vn 0.000000 0.000000 1.000000
vn 0.000000 0.000000 1.000000
vn 0.000000 0.000000 -1.000000
vn 0.000000 0.000000 -1.000000
vn -1.000000 0.000000 0.000000
vn -1.000000 0.000000 0.000000
vn 0.000000 0.000000 1.000000
vn 0.000000 0.000000 1.000000
vn 0.000000 0.000000 -1.000000
vn 0.000000 0.000000 -1.000000
vn 0.000000 1.000000 0.000000
vn 0.000000 1.000000 -0.000000
vn 0.000000 0.000000 1.000000
vn -0.000000 0.000000 1.000000
vn 0.000000 0.000000 -1.000000
vn -0.000000 0.000000 -1.000000
vn 0.000000 1.000000 0.000000
vn 0.000000 1.000000 0.000000
vn 0.000000 1.000000 0.000000
vn 0.000000 1.000000 0.000000
vn 0.000000 0.000000 1.000000
vn -0.000000 0.000000 1.000000
vn 0.000000 0.000000 -1.000000
vn 0.000000 0.000000 -1.000000
vn 0.000000 1.000000 0.000000
vn 0.000000 1.000000 -0.000000
vn 1.000000 0.000000 0.000000
vn 1.000000 0.000000 0.000000
vn 0.000000 0.000000 1.000000
vn 0.000000 0.000000 1.000000
vn 0.000000 0.000000 -1.000000
vn 0.000000 0.000000 -1.000000
vn 0.000000 0.000000 -1.000000
vn 0.000000 0.000000 -1.000000
vn 0.000000 0.000000 -1.000000
vn 0.000000 1.000000 0.000000
vn 0.000000 1.000000 0.000000
vn 0.000000 1.000000 0.000000
vn 0.000000 1.000000 0.000000
vn 0.000000 1.000000 0.000000
vn -1.000000 -0.000000 0.000000
vn -1.000000 0.000000 0.000000
vn 1.000000 -0.000000 0.000000
vn 1.000000 0.000000 0.000000
vn 0.000000 1.000000 0.000000
vn 0.000000 1.000000 0.000000
vn 0.000000 1.000000 0.000000
vn -1.000000 -0.000000 0.000000
vn -1.000000 0.000000 0.000000
vn 1.000000 -0.000000 0.000000
vn 1.000000 0.000000 0.000000
vn 0.000000 0.000000 1.000000
vn -0.000000 0.000000 1.000000
vn 0.000000 1.000000 0.000000
vn 0.000000 1.000000 0.000000
vn -1.000000 -0.000000 0.000000
vn -1.000000 0.000000 0.000000
vn 1.000000 0.000000 0.000000
vn 1.000000 0.000000 0.000000
vn 0.000000 1.000000 -0.000000
vn 0.000000 1.000000 0.000000
vn -1.000000 -0.000000 0.000000
vn -1.000000 0.000000 0.000000
vn 1.000000 -0.000000 0.000000
vn 1.000000 0.000000 0.000000
vn 0.000000 0.000000 1.000000
vn -0.000000 0.000000 1.000000
vn 0.000000 0.000000 -1.000000
vn -0.000000 0.000000 -1.000000
vn 0.000000 1.000000 0.000000
vn 0.000000 1.000000 0.000000
vn -1.000000 -0.000000 0.000000
vn -1.000000 0.000000 0.000000
vn 1.000000 0.000000 0.000000
vn 1.000000 0.000000 0.000000
vn 0.000000 0.000000 -1.000000
vn 0.000000 0.000000 -1.000000
vn -1.000000 -0.000000 0.000000
vn -1.000000 0.000000 0.000000
vn 1.000000 -0.000000 0.000000
vn 1.000000 0.000000 0.000000
vn 0.000000 0.000000 1.000000
vn 0.000000 0.000000 1.000000
vn 0.000000 1.000000 0.000000
vn 0.000000 1.000000 0.000000
vn -1.000000 -0.000000 0.000000
vn -1.000000 0.000000 0.000000
vn 1.000000 0.000000 0.000000
vn 1.000000 0.000000 0.000000
vn 0.000000 0.000000 1.000000
vn 0.000000 0.000000 1.000000
vn 0.000000 0.000000 -1.000000
vn 0.000000 0.000000 -1.000000
vn -1.000000 -0.000000 0.000000
vn -1.000000 0.000000 0.000000
vn 0.000000 0.000000 1.000000
vn -0.000000 0.000000 1.000000
vn 0.000000 0.000000 -1.000000
vn 0.000000 0.000000 -1.000000
vn 0.000000 1.000000 0.000000
vn 0.000000 1.000000 0.000000
vn -1.000000 -0.000000 0.000000
vn -1.000000 0.000000 0.000000
vn 1.000000 -0.000000 0.000000
vn 1.000000 0.000000 0.000000
vn 0.000000 0.000000 1.000000
vn 0.000000 0.000000 1.000000
vn 0.000000 1.000000 0.000000
vn 0.000000 1.000000 0.000000
vn -1.000000 0.000000 0.000000
vn -1.000000 0.000000 0.000000
vn 1.000000 0.000000 0.000000
vn 1.000000 0.000000 0.000000
vn 0.000000 0.000000 1.000000
vn 0.000000 0.000000 1.000000
vn 0.000000 0.000000 1.000000
vn 0.000000 0.000000 -1.000000
vn 0.000000 0.000000 -1.000000
vn 0.000000 0.000000 -1.000000
vn -1.000000 0.000000 0.000000
vn -1.000000 0.000000 0.000000
vn -1.000000 0.000000 0.000000
vn 1.000000 0.000000 0.000000
vn 1.000000 0.000000 0.000000
vn 0.000000 0.000000 1.000000
vn -0.000000 0.000000 1.000000
vn 0.000000 0.000000 -1.000000
vn 0.000000 0.000000 -1.000000
vn 0.000000 0.000000 -1.000000
vn 0.000000 1.000000 -0.000000
vn 0.000000 1.000000 0.000000
vn 1.000000 0.000000 0.000000
vn 1.000000 0.000000 0.000000
vn 0.000000 0.000000 -1.000000
vn -0.000000 0.000000 -1.000000
vn 0.000000 1.000000 0.000000
vn 0.000000 1.000000 0.000000
vn 1.000000 -0.000000 0.000000
vn 1.000000 0.000000 0.000000
vn 0.000000 0.000000 1.000000
vn 0.000000 0.000000 1.000000
vn 0.000000 0.000000 -1.000000
vn 0.000000 0.000000 -1.000000
g mat_snowyasphalt03
usemtl snowyasphalt03
f 1/1/1 2/2/1 3/3/1
f 2/4/2 1/5/2 4/6/2
g mat_brick61a
usemtl brick61a
f 5/7/3 4/8/3 1/9/3
f 4/10/4 5/11/4 6/12/4
f 7/13/5 1/14/5 3/15/5
f 1/16/6 8/17/6 5/18/6
f 1/19/7 9/20/7 8/21/7
f 1/22/8 7/23/8 9/24/8
f 2/25/9 7/26/9 3/27/9
f 7/28/10 2/29/10 10/30/10
f 4/31/11 10/32/11 2/33/11
f 4/34/12 11/35/12 10/36/12
f 4/37/13 12/38/13 11/39/13
f 12/40/14 4/41/14 6/42/14
f 13/43/15 14/44/15 15/45/15
f 14/46/16 13/47/16 16/48/16
f 17/49/17 18/50/17 19/51/17
f 18/52/18 17/53/18 20/54/18
f 15/55/19 19/56/19 13/57/19
f 19/58/20 15/59/20 17/60/20
f 16/61/21 20/62/21 14/63/21
f 20/64/22 16/65/22 18/66/22
f 21/67/23 22/68/23 23/69/23
f 22/70/24 21/71/24 24/72/24
f 25/73/25 26/74/25 27/75/25
f 26/76/26 25/77/26 28/78/26
f 27/79/27 24/80/27 21/81/27
f 24/82/28 27/83/28 26/84/28
f 23/85/29 28/86/29 25/87/29
f 28/88/30 23/89/30 22/90/30
f 28/91/31 24/92/31 26/93/31
f 24/94/32 28/95/32 22/96/32
f 29/97/33 30/98/33 31/99/33
f 30/100/34 29/101/34 32/102/34
f 33/103/35 34/104/35 35/105/35
f 33/106/36 36/107/36 34/108/36
f 36/109/37 33/110/37 37/111/37
f 33/112/38 31/113/38 38/114/38
f 33/115/39 29/116/39 31/117/39
f 29/118/40 33/119/40 35/120/40
f 30/121/41 34/122/41 36/123/41
f 34/124/42 30/125/42 32/126/42
f 35/127/43 32/128/43 29/129/43
f 32/130/44 35/131/44 34/132/44
g mat_wall56a
usemtl wall56a
f 39/133/45 40/134/45 41/135/45
f 40/136/46 39/137/46 42/138/46
f 43/139/47 39/140/47 44/141/47
f 39/142/48 43/143/48 42/144/48
f 45/145/49 40/146/49 46/147/49
f 40/148/50 45/149/50 41/150/50
f 44/151/51 41/152/51 45/153/51
f 41/154/52 44/155/52 39/156/52
g mat_wall80
usemtl wall80
f 47/157/53 48/158/53 49/159/53
f 48/160/54 47/161/54 50/162/54
f 51/163/55 52/164/55 53/165/55
f 54/166/56 52/167/56 51/168/56
f 54/169/57 55/170/57 52/171/57
f 55/172/58 54/173/58 56/174/58
f 57/175/59 49/176/59 48/177/59
f 49/178/60 57/179/60 58/180/60
f 47/181/61 54/182/61 50/183/61
f 54/184/62 47/185/62 56/186/62
f 59/187/63 57/188/63 60/189/63
f 57/190/64 59/191/64 58/192/64
f 52/193/65 51/194/65 55/195/65
f 61/196/66 51/197/66 52/198/66
f 61/199/67 53/200/67 51/201/67
f 53/202/68 61/203/68 62/204/68
f 59/205/69 62/206/69 61/207/69
f 62/208/70 59/209/70 60/210/70
f 63/211/71 64/212/71 65/213/71
f 64/214/72 63/215/72 66/216/72
f 67/217/73 68/218/73 69/219/73
f 70/220/74 68/221/74 67/222/74
f 70/223/75 71/224/75 68/225/75
f 70/226/76 72/227/76 71/228/76
f 72/229/77 70/230/77 9/231/77
f 73/232/78 74/233/78 75/234/78
f 74/235/79 73/236/79 76/237/79
f 69/238/80 77/239/80 78/240/80
f 67/241/81 77/242/81 69/243/81
f 67/244/82 68/245/82 77/246/82
f 68/247/83 67/248/83 71/249/83
f 75/250/84 66/251/84 73/252/84
f 66/253/85 75/254/85 64/255/85
f 76/256/86 77/257/86 74/258/86
f 77/259/87 76/260/87 78/261/87
g mat_wall59a
usemtl wall59a
f 79/262/88 80/263/88 81/264/88
f 80/265/89 79/266/89 82/267/89
f 83/268/90 84/269/90 85/270/90
f 84/271/91 83/272/91 86/273/91
f 81/274/92 85/275/92 79/276/92
f 85/277/93 81/278/93 83/279/93
f 82/280/94 86/281/94 80/282/94
f 86/283/95 82/284/95 84/285/95
g mat_wall70
usemtl wall70
f 87/286/96 88/287/96 89/288/96
f 88/289/97 87/290/97 90/291/97
f 89/292/98 91/293/98 87/294/98
f 91/295/99 89/296/99 92/297/99
f 90/298/100 93/299/100 88/300/100
f 93/301/101 90/302/101 94/303/101
g mat_wood17a
usemtl wood17a
f 95/304/102 96/305/102 97/306/102
f 96/307/103 95/308/103 98/309/103
f 95/310/104 99/311/104 98/312/104
f 99/313/105 95/314/105 100/315/105
f 96/316/106 101/317/106 97/318/106
f 101/319/107 96/320/107 102/321/107
f 98/322/108 102/323/108 96/324/108
f 102/325/109 98/326/109 99/327/109
f 103/328/110 104/329/110 37/330/110
f 104/331/111 103/332/111 105/333/111
f 106/334/112 107/335/112 108/336/112
f 107/337/113 106/338/113 109/339/113
f 109/340/114 105/341/114 107/342/114
f 110/343/115 105/344/115 109/345/115
f 110/346/116 104/347/116 105/348/116
f 104/349/117 110/350/117 111/351/117
f 112/352/118 113/353/118 114/354/118
f 113/355/119 112/356/119 115/357/119
f 116/358/120 117/359/120 118/360/120
f 117/361/121 116/362/121 119/363/121
f 113/364/122 119/365/122 116/366/122
f 119/367/123 113/368/123 115/369/123
f 120/370/124 121/371/124 122/372/124
f 121/373/125 120/374/125 123/375/125
f 124/376/126 120/377/126 125/378/126
f 120/379/127 124/380/127 123/381/127
f 126/382/128 121/383/128 127/384/128
f 121/385/129 128/386/129 122/387/129
f 121/388/130 129/389/130 128/390/130
f 121/391/131 130/392/131 129/393/131
f 121/394/132 126/395/132 130/396/132
f 120/397/133 126/398/133 125/399/133
f 120/400/134 130/401/134 126/402/134
f 120/403/135 129/404/135 130/405/135
f 120/406/136 128/407/136 129/408/136
f 128/409/137 120/410/137 122/411/137
g mat_wood26a
usemtl wood26a
f 131/412/138 132/413/138 133/414/138
f 132/415/139 131/416/139 134/417/139
f 135/418/140 136/419/140 128/420/140
f 136/421/141 135/422/141 137/423/141
f 128/424/142 131/425/142 129/426/142
f 128/427/143 134/428/143 131/429/143
f 134/430/144 128/431/144 136/432/144
f 138/433/145 139/434/145 140/435/145
f 139/436/146 138/437/146 141/438/146
f 142/439/147 143/440/147 144/441/147
f 143/442/148 142/443/148 145/444/148
f 142/445/149 138/446/149 140/447/149
f 138/448/150 142/449/150 144/450/150
f 144/451/151 141/452/151 138/453/151
f 141/454/152 144/455/152 143/456/152
f 146/457/153 147/458/153 148/459/153
f 147/460/154 146/461/154 149/462/154
f 150/463/155 151/464/155 152/465/155
f 151/466/156 150/467/156 153/468/156
f 153/469/157 146/470/157 151/471/157
f 146/472/158 153/473/158 149/474/158
f 154/475/159 155/476/159 156/477/159
f 155/478/160 154/479/160 157/480/160
f 158/481/161 159/482/161 160/483/161
f 159/484/162 158/485/162 161/486/162
f 158/487/163 154/488/163 156/489/163
f 154/490/164 158/491/164 160/492/164
f 155/493/165 159/494/165 161/495/165
f 159/496/166 155/497/166 157/498/166
f 160/499/167 157/500/167 154/501/167
f 157/502/168 160/503/168 159/504/168
g mat_brick65a
usemtl brick65a
f 162/505/169 163/506/169 164/507/169
f 163/508/170 162/509/170 165/510/170
f 166/511/171 167/512/171 168/513/171
f 167/514/172 166/515/172 169/516/172
f 165/517/173 166/518/173 163/519/173
f 166/520/174 165/521/174 169/522/174
f 170/523/175 171/524/175 172/525/175
f 171/526/176 170/527/176 173/528/176
f 174/529/177 175/530/177 176/531/177
f 175/532/178 174/533/178 177/534/178
f 172/535/179 176/536/179 170/537/179
f 176/538/180 172/539/180 174/540/180
f 176/541/181 173/542/181 170/543/181
f 173/544/182 176/545/182 175/546/182
g mat_brick52a
usemtl brick52a
f 178/547/183 179/548/183 180/549/183
f 179/550/184 178/551/184 181/552/184
f 182/553/185 183/554/185 184/555/185
f 183/556/186 182/557/186 185/558/186
f 180/559/187 183/560/187 178/561/187
f 183/562/188 180/563/188 184/564/188
f 181/565/189 182/566/189 179/567/189
f 182/568/190 181/569/190 185/570/190
f 186/571/191 187/572/191 188/573/191
f 187/574/192 186/575/192 189/576/192
f 190/577/193 186/578/193 188/579/193
f 186/580/194 190/581/194 191/582/194
f 192/583/195 189/584/195 193/585/195
f 189/586/196 192/587/196 187/588/196
f 191/589/197 189/590/197 186/591/197
f 189/592/198 191/593/198 193/594/198
f 194/595/199 195/596/199 196/597/199
f 195/598/200 194/599/200 11/600/200
f 197/601/201 12/602/201 198/603/201
f 12/604/202 197/605/202 199/606/202
f 196/607/203 198/608/203 194/609/203
f 198/610/204 196/611/204 197/612/204
f 198/613/205 11/614/205 194/615/205
f 11/616/206 198/617/206 12/618/206
g mat_brick48a
usemtl brick48a
f 200/619/207 201/620/207 202/621/207
f 201/622/208 200/623/208 203/624/208
f 204/625/209 205/626/209 206/627/209
f 205/628/210 204/629/210 207/630/210
f 200/631/211 205/632/211 203/633/211
f 200/634/212 206/635/212 205/636/212
f 206/637/213 200/638/213 208/639/213
f 201/640/214 209/641/214 202/642/214
f 201/643/215 204/644/215 209/645/215
f 204/646/216 201/647/216 207/648/216
f 210/649/217 211/650/217 212/651/217
f 211/652/218 130/653/218 213/654/218
f 211/655/219 210/656/219 130/657/219
f 214/658/220 215/659/220 129/660/220
f 215/661/221 214/662/221 216/663/221
f 129/664/222 213/665/222 130/666/222
f 213/667/223 129/668/223 215/669/223
f 211/670/224 133/671/224 212/672/224
f 211/673/225 214/674/225 133/675/225
f 214/676/226 211/677/226 216/678/226
f 216/679/227 213/680/227 215/681/227
f 213/682/228 216/683/228 211/684/228
f 217/685/229 8/686/229 218/687/229
f 8/688/230 217/689/230 219/690/230
f 72/691/231 219/692/231 217/693/231
f 219/694/232 72/695/232 220/696/232
f 8/697/233 220/698/233 9/699/233
f 220/700/234 8/701/234 219/702/234
g mat_wall69
usemtl wall69
f 221/703/235 222/704/235 223/705/235
f 222/706/236 221/707/236 224/708/236
f 225/709/237 223/710/237 226/711/237
f 223/712/238 225/713/238 221/714/238
f 227/715/239 224/716/239 228/717/239
f 224/718/240 227/719/240 222/720/240
